# xmcd
#
# Track frame offsets: 
#        150
#        15467
#        35376
#        54212
#        73752
#        91867
#        106443
#        126345
#        145699
#        162108
#        175985
#        198458
#        218692
#        233177
#        246793
#        261982
#        283484
#        305934
#        330929
#        344209
#
# Disc length: 4763 seconds
#
# Revision: 0
# Processed by: cddbd v1.5.2PL0 Copyright (c) Steve Scherf et al.
# Submitted via: ExactAudioCopy v1.3
#
DISCID=2e129914
DTITLE=Various Artist - Akella Presents - vol.164 - Americana  CD2
DYEAR=2018
DGENRE=Americana
TTITLE0=Richard Van Bergen - Love my baby
TTITLE1=Richie Arndt - Lonely Midnight Train
TTITLE2=Mark Cole - Water Will Rise
TTITLE3=Kat Danser - Light The Flame
TTITLE4=Celso Salim Band - Got to Find That Babe
TTITLE5=Fiona Boyes - Don't Leave Your Feet at Home
TTITLE6=Ghost Riders - Mr. Manager
TTITLE7=The Theory - All That I Have
TTITLE8=Jeen Cleary - Me And Bobby McGee
TTITLE9=Jon Spear Band - I Love My Skin
TTITLE10=Robert Johnson's Backbone - Morning Blues
TTITLE11=Lucinda Williams and Tony Joe White - Closing in on the Fire
TTITLE12=David Gogo - Yo Yo Blues
TTITLE13=Bo Walton - Dream Again
TTITLE14=Dana Fuchs - Fight My Way
TTITLE15=8 Ball Aitken - Mile In My Shoes
TTITLE16=Sunnysiders - There Where Blues Was Born
TTITLE17=Layla Zoe - I Can't Imagine My Life Without You
TTITLE18=John Hiatt - Poor Imitation Of God
TTITLE19=Mark Knopfler - Matchstick Man
EXTD=
EXTT0=
EXTT1=
EXTT2=
EXTT3=
EXTT4=
EXTT5=
EXTT6=
EXTT7=
EXTT8=
EXTT9=
EXTT10=
EXTT11=
EXTT12=
EXTT13=
EXTT14=
EXTT15=
EXTT16=
EXTT17=
EXTT18=
EXTT19=
PLAYORDER=
